<?xml version="1.0" encoding="UTF-8"?>
<svg version="1.1" xmlns="http://www.w3.org/2000/svg" width="148" height="148">
<path d="M0 0 C48.84 0 97.68 0 148 0 C148 48.84 148 97.68 148 148 C99.16 148 50.32 148 0 148 C0 99.16 0 50.32 0 0 Z " fill="#FEFEFE" transform="translate(0,0)"/>
<path d="M0 0 C1.66611905 -0.042721 3.33382885 -0.04063832 5 0 C6 1 6 1 6.125 3.5 C6 6 6 6 5 7 C4.90006468 9.0605531 4.86919094 11.1245259 4.8671875 13.1875 C4.86589844 14.44304688 4.86460938 15.69859375 4.86328125 16.9921875 C4.86537598 17.64928711 4.8674707 18.30638672 4.86962891 18.98339844 C4.87497766 20.99161335 4.86968309 22.99960459 4.86328125 25.0078125 C4.86457031 26.26335938 4.86585937 27.51890625 4.8671875 28.8125 C4.86887939 30.55466797 4.86887939 30.55466797 4.87060547 32.33203125 C4.69662526 34.92063284 4.69662526 34.92063284 6 36 C6.125 38.5 6.125 38.5 6 41 C5.67 41.33 5.34 41.66 5 42 C4.89996711 44.13353174 4.86918952 46.27037542 4.8671875 48.40625 C4.86589844 49.70691406 4.86460938 51.00757813 4.86328125 52.34765625 C4.86537598 53.02844238 4.8674707 53.70922852 4.86962891 54.41064453 C4.8749776 56.49128515 4.8696832 58.57170989 4.86328125 60.65234375 C4.86457031 61.95300781 4.86585937 63.25367188 4.8671875 64.59375 C4.86887939 66.39875977 4.86887939 66.39875977 4.87060547 68.24023438 C4.68544023 70.90984482 4.68544023 70.90984482 6 72 C6.125 74.5 6.125 74.5 6 77 C5 78 5 78 2.4375 78.0625 C1.633125 78.041875 0.82875 78.02125 0 78 C-0.23178955 77.40598389 -0.4635791 76.81196777 -0.70239258 76.19995117 C-3.28042763 71.82917528 -8.40181448 69.80443434 -12.6875 67.3125 C-13.66912109 66.71888672 -14.65074219 66.12527344 -15.66210938 65.51367188 C-21.52011199 61.95191272 -21.52011199 61.95191272 -28.08203125 60.35546875 C-29.04496094 60.23816406 -30.00789063 60.12085938 -31 60 C-31.28673584 59.39792725 -31.57347168 58.79585449 -31.86889648 58.17553711 C-33.38978541 55.25029618 -35.15334626 54.43443801 -38.015625 52.8359375 C-39.01980469 52.27132812 -40.02398437 51.70671875 -41.05859375 51.125 C-42.11175781 50.5475 -43.16492188 49.97 -44.25 49.375 C-45.80654297 48.49714844 -45.80654297 48.49714844 -47.39453125 47.6015625 C-52.20492897 44.92297577 -56.72189756 42.62888807 -62 41 C-62.042721 39.33388095 -62.04063832 37.66617115 -62 36 C-60.53799947 34.53799947 -59.08688671 34.62027983 -57.05859375 34.2734375 C-51.44441155 33.07031903 -46.95923783 30.54383981 -42.0625 27.625 C-40.78922852 26.90183594 -40.78922852 26.90183594 -39.49023438 26.1640625 C-34.96919462 23.76381954 -34.96919462 23.76381954 -31.94067383 19.85742188 C-31.63025146 19.24447266 -31.3198291 18.63152344 -31 18 C-28.66714149 17.66335966 -26.33370452 17.33072459 -24 17 C-20.97736837 15.61267868 -18.19436876 13.88336957 -15.375 12.125 C-14.26898438 11.45404297 -14.26898438 11.45404297 -13.140625 10.76953125 C-11.71939482 9.90609571 -10.30179028 9.0366552 -8.88842773 8.16040039 C-7.29661425 7.18226342 -5.68008736 6.24451216 -4.05859375 5.31640625 C-1.70515284 3.81145447 -0.97911274 2.58129724 0 0 Z " fill="#4689F6" transform="translate(92,31)"/>
<path d="M0 0 C0 9.24 0 18.48 0 28 C-3 29 -3 29 -5.25244141 28.07543945 C-8.05136988 26.50087787 -10.8456693 24.92148919 -13.625 23.3125 C-14.6046875 22.76916016 -15.584375 22.22582031 -16.59375 21.66601562 C-17.52445312 21.13298828 -18.45515625 20.59996094 -19.4140625 20.05078125 C-20.69724365 19.31855347 -20.69724365 19.31855347 -22.00634766 18.5715332 C-24 17 -24 17 -24.78662109 14.80932617 C-24.85703613 14.21224854 -24.92745117 13.6151709 -25 13 C-24.48091064 12.71278076 -23.96182129 12.42556152 -23.42700195 12.12963867 C-21.05499613 10.8165026 -18.68374289 9.50201321 -16.3125 8.1875 C-15.49587891 7.73568359 -14.67925781 7.28386719 -13.83789062 6.81835938 C-10.53614411 4.98702629 -7.25694278 3.15851027 -4.04296875 1.17578125 C-2 0 -2 0 0 0 Z " fill="#F9FBFE" transform="translate(93,38)"/>
<path d="M0 0 C0 9.57 0 19.14 0 29 C-5.78088323 27.07303892 -10.22460378 24.74645225 -15.375 21.625 C-16.20644531 21.14289063 -17.03789063 20.66078125 -17.89453125 20.1640625 C-18.67957031 19.6896875 -19.46460937 19.2153125 -20.2734375 18.7265625 C-21.34730713 18.08581787 -21.34730713 18.08581787 -22.44287109 17.43212891 C-22.95672363 16.95952637 -23.47057617 16.48692383 -24 16 C-24 14.68 -24 13.36 -24 12 C-20.56853286 9.98951049 -17.12889088 7.99344755 -13.6875 6 C-12.71103516 5.42765625 -11.73457031 4.8553125 -10.72851562 4.265625 C-9.79072266 3.72421875 -8.85292969 3.1828125 -7.88671875 2.625 C-7.02264404 2.12226562 -6.15856934 1.61953125 -5.26831055 1.1015625 C-3 0 -3 0 0 0 Z " fill="#FAFCFE" transform="translate(93,73)"/>
<path d="M0 0 C0 9.9 0 19.8 0 30 C-5.22883568 27.90846573 -9.92543756 25.39469982 -14.8125 22.625 C-15.69615234 22.14289063 -16.57980469 21.66078125 -17.49023438 21.1640625 C-18.32490234 20.6896875 -19.15957031 20.2153125 -20.01953125 19.7265625 C-21.16578979 19.08581787 -21.16578979 19.08581787 -22.33520508 18.43212891 C-22.8845874 17.95952637 -23.43396973 17.48692383 -24 17 C-24 15.68 -24 14.36 -24 13 C-22.01220703 11.35253906 -22.01220703 11.35253906 -19.2578125 9.765625 C-18.27425781 9.19199219 -17.29070313 8.61835937 -16.27734375 8.02734375 C-15.23707031 7.44082031 -14.19679688 6.85429688 -13.125 6.25 C-12.09246094 5.64800781 -11.05992188 5.04601563 -9.99609375 4.42578125 C-2.31871811 0 -2.31871811 0 0 0 Z " fill="#FBFCFE" transform="translate(63,55)"/>
<path d="M0 0 C5.57596723 1.85865574 9.88612167 4.0404959 14.875 7 C16.050625 7.67675781 16.050625 7.67675781 17.25 8.3671875 C17.98992187 8.80289063 18.72984375 9.23859375 19.4921875 9.6875 C20.16620605 10.08324219 20.84022461 10.47898437 21.53466797 10.88671875 C22.26000732 11.43779297 22.26000732 11.43779297 23 12 C23 12.66 23 13.32 23 14 C19.54565686 16.00695291 16.0858937 18.00436779 12.625 20 C11.64015625 20.57234375 10.6553125 21.1446875 9.640625 21.734375 C8.69960937 22.27578125 7.75859375 22.8171875 6.7890625 23.375 C5.48509521 24.12910156 5.48509521 24.12910156 4.15478516 24.8984375 C2 26 2 26 0 26 C0 17.42 0 8.84 0 0 Z " fill="#FAFCFE" transform="translate(66,57)"/>
</svg>
